<svg width="417" height="92" viewBox="0 0 417 92" fill="none" xmlns="http://www.w3.org/2000/svg">
<path d="M93.98 91.28C92.6 91.28 91.48 90.16 91.48 88.78V48.48C91.48 46.77 92.59 45.28 94.24 44.78C104.45 41.66 111.81 32.79 112.98 22.19L113.03 21.69L111.74 21.87C103.71 23.01 96.72 27.66 92.57 34.62C91.9 35.73 90.74 36.39 89.46 36.39C88.18 36.39 87.02 35.73 86.35 34.63C82.19 27.66 75.2 23.02 67.17 21.88L65.88 21.7L65.93 22.2C65.98 22.67 66.05 23.14 66.13 23.6C67.23 30.27 70.78 36.22 76.14 40.36C78.83 42.44 81.84 43.97 85.1 44.9C86.77 45.38 87.93 46.91 87.93 48.63V88.78C87.93 90.16 86.81 91.28 85.43 91.28C84.05 91.28 82.93 90.16 82.93 88.78V49.47C79.36 48.35 76.05 46.61 73.08 44.31C66.72 39.39 62.5 32.33 61.2 24.43C61.11 23.89 61.02 23.31 60.96 22.73L60.83 21.52C60.68 20.16 61.16 18.82 62.15 17.86C63.14 16.9 64.49 16.45 65.86 16.64L67.88 16.93C76.69 18.18 84.44 22.98 89.46 30.22C94.48 22.98 102.23 18.18 111.04 16.93L113.05 16.65C114.42 16.46 115.77 16.9 116.76 17.87C117.75 18.83 118.23 20.17 118.08 21.54L117.95 22.74C116.59 35.07 108.2 45.42 96.48 49.33V88.8C96.48 90.17 95.36 91.28 93.98 91.28Z" fill="#EBEBEB"/>
<path d="M99.38 25.46C99.3 25.46 99.22 25.45 99.14 25.44C92.69 24.39 85.99 24.33 79.5 25.27C78.61 25.39 77.78 24.69 77.78 23.79C77.78 23.01 78.37 22.37 79.12 22.3C85.9 21.32 92.89 21.39 99.62 22.48C100.44 22.61 100.99 23.38 100.86 24.2C100.74 24.93 100.1 25.46 99.38 25.46Z" fill="#EBEBEB"/>
<path d="M154.46 90.28C153.63 90.28 152.96 89.61 152.96 88.78C152.96 62.88 137.53 39.65 113.65 29.6C112.89 29.28 112.53 28.4 112.85 27.64C113.17 26.88 114.05 26.52 114.81 26.84C139.8 37.36 155.95 61.67 155.95 88.78C155.96 89.61 155.29 90.28 154.46 90.28Z" fill="#EBEBEB"/>
<path d="M23.1 90.28C22.27 90.28 21.6 89.61 21.6 88.78C21.6 61.06 38.24 36.55 63.98 26.32C64.75 26.01 65.62 26.39 65.93 27.16C66.24 27.93 65.86 28.8 65.09 29.11C40.49 38.88 24.6 62.3 24.6 88.78C24.6 89.61 23.93 90.28 23.1 90.28Z" fill="#EBEBEB"/>
<path d="M46.87 90.28C46.04 90.28 45.37 89.61 45.37 88.78C45.37 66.72 61.87 48.19 83.75 45.66C84.62 45.56 85.43 46.26 85.43 47.15C85.43 47.94 84.83 48.58 84.05 48.65C63.7 51.02 48.37 68.27 48.37 88.79C48.37 89.61 47.7 90.28 46.87 90.28Z" fill="#EBEBEB"/>
<path d="M130.68 90.28C129.85 90.28 129.18 89.61 129.18 88.78C129.18 68.77 114.27 51.57 94.5 48.77C93.68 48.65 93.11 47.89 93.23 47.07C93.35 46.25 94.1 45.68 94.93 45.8C116.17 48.81 132.19 67.29 132.19 88.78C132.18 89.61 131.5 90.28 130.68 90.28Z" fill="#EBEBEB"/>
<path d="M175.05 91.28H93.98C92.6 91.28 91.48 90.16 91.48 88.78C91.48 87.4 92.6 86.28 93.98 86.28H172.52C171.19 41.24 134.14 5 88.78 5C43.43 5 6.37 41.24 5.05 86.28H85.45C86.83 86.28 87.95 87.4 87.95 88.78C87.95 90.16 86.83 91.28 85.45 91.28H2.5C1.12 91.28 0 90.16 0 88.78C0 39.83 39.82 0 88.77 0C137.72 0 177.55 39.83 177.55 88.78C177.55 90.17 176.43 91.28 175.05 91.28Z" fill="#EBEBEB"/>
<path d="M232.76 39.3C232.97 39.76 232.82 40.3 232.39 40.57C231.91 40.87 231.29 41.23 230.51 41.64C229.24 42.3 227.69 42.89 225.86 43.39C224.03 43.9 222 44.13 219.78 44.09C216.39 44.01 213.36 43.4 210.69 42.25C208.02 41.1 205.76 39.53 203.91 37.54C202.06 35.55 200.65 33.27 199.67 30.7C198.7 28.13 198.21 25.38 198.21 22.46C198.21 19.19 198.71 16.19 199.7 13.46C200.69 10.73 202.12 8.38001 203.97 6.39001C205.82 4.40001 208.03 2.86 210.6 1.77C213.17 0.680004 216.02 0.130005 219.13 0.130005C222.01 0.130005 224.57 0.520007 226.79 1.30001C228.62 1.94001 230.17 2.62 231.44 3.34C231.89 3.59 232.09 4.13 231.89 4.61L229.37 10.67C229.13 11.25 228.43 11.47 227.91 11.13C227.1 10.6 226.13 10.06 225.01 9.51001C223.39 8.71001 221.53 8.31001 219.43 8.31001C217.79 8.31001 216.22 8.65001 214.73 9.33001C213.23 10.01 211.9 10.98 210.76 12.22C209.61 13.47 208.7 14.92 208.04 16.57C207.38 18.23 207.05 20.03 207.05 21.98C207.05 24.05 207.35 25.94 207.96 27.65C208.56 29.36 209.43 30.84 210.56 32.06C211.69 33.29 213.04 34.23 214.62 34.89C216.2 35.55 217.98 35.88 219.97 35.88C222.27 35.88 224.24 35.51 225.87 34.77C226.97 34.27 227.89 33.76 228.63 33.23C229.15 32.86 229.88 33.03 230.15 33.61L232.76 39.3Z" fill="#EBEBEB"/>
<path d="M275.39 42.21L257.32 0.999994C256.97 0.199994 255.84 0.199994 255.49 0.999994L237.34 42.23C237.05 42.89 237.54 43.62 238.25 43.62H244.41C244.82 43.62 245.19 43.37 245.34 43L248.33 35.83C248.49 35.45 248.85 35.21 249.26 35.21H262.18C262.59 35.21 262.97 35.46 263.12 35.85L265.93 42.99C266.08 43.38 266.46 43.63 266.87 43.63H274.45C275.19 43.62 275.68 42.88 275.39 42.21ZM252.15 26.68L254.97 19.9C255.32 19.06 256.51 19.07 256.85 19.92L259.52 26.7C259.78 27.36 259.29 28.08 258.58 28.08H253.09C252.36 28.08 251.87 27.34 252.15 26.68Z" fill="#EBEBEB"/>
<path d="M282.26 42.62V2.01999C282.26 1.03999 283.52 0.639992 284.09 1.43999L304.87 30.84C305.35 31.51 304.74 32.42 303.94 32.24C303.31 32.1 303.03 31.36 303.41 30.83L324.75 1.36999C325.32 0.579992 326.57 0.989992 326.57 1.95999V42.62C326.57 43.17 326.12 43.62 325.57 43.62H319.11C318.56 43.62 318.11 43.17 318.11 42.62V17.97L318.59 21.97C318.62 22.21 318.56 22.46 318.42 22.66L305.07 41.85C304.68 42.41 303.85 42.43 303.44 41.87L289.33 22.77C289.13 22.5 289.08 22.15 289.19 21.83L290.47 18.3V42.6C290.47 43.15 290.02 43.6 289.47 43.6H283.3C282.71 43.62 282.26 43.17 282.26 42.62Z" fill="#EBEBEB"/>
<path d="M350.7 0.610004C354.25 0.610004 357.25 1.20001 359.7 2.39001C362.16 3.58001 364.03 5.25001 365.31 7.42001C366.6 9.58001 367.24 12.14 367.24 15.11C367.24 16.86 366.98 18.63 366.45 20.4C365.92 22.17 365.09 23.78 363.94 25.22C362.79 26.66 361.25 27.82 359.32 28.7C357.39 29.58 355.02 30.02 352.22 30.02H347.14C346.59 30.02 346.14 30.47 346.14 31.02V42.65C346.14 43.2 345.69 43.65 345.14 43.65H338.66C338.11 43.65 337.66 43.2 337.66 42.65V1.60001C337.66 1.05001 338.11 0.600006 338.66 0.600006H350.7V0.610004ZM352.16 21.77C353.45 21.77 354.52 21.55 355.37 21.1C356.22 20.65 356.9 20.09 357.39 19.4C357.88 18.72 358.23 18.01 358.44 17.27C358.65 16.53 358.76 15.89 358.76 15.34C358.76 14.91 358.69 14.34 358.55 13.62C358.41 12.9 358.13 12.17 357.7 11.43C357.27 10.69 356.62 10.07 355.74 9.56001C354.86 9.05 353.68 8.80001 352.2 8.80001H347.12C346.57 8.80001 346.12 9.25001 346.12 9.80001V20.78C346.12 21.33 346.57 21.78 347.12 21.78H352.16V21.77Z" fill="#EBEBEB"/>
<path d="M372.21 22.17C372.21 19.21 372.77 16.4 373.9 13.75C375.03 11.1 376.6 8.75 378.61 6.71C380.62 4.67 382.94 3.06 385.59 1.89C388.24 0.719999 391.08 0.139999 394.12 0.139999C397.12 0.139999 399.95 0.719999 402.6 1.89C405.25 3.06 407.6 4.67 409.64 6.71C411.68 8.76 413.28 11.1 414.43 13.75C415.58 16.4 416.15 19.21 416.15 22.17C416.15 25.21 415.57 28.05 414.43 30.7C413.28 33.35 411.68 35.68 409.64 37.68C407.59 39.69 405.25 41.26 402.6 42.39C399.95 43.52 397.12 44.09 394.12 44.09C391.08 44.09 388.24 43.53 385.59 42.39C382.94 41.26 380.61 39.69 378.61 37.68C376.6 35.67 375.03 33.35 373.9 30.7C372.77 28.06 372.21 25.21 372.21 22.17ZM380.98 22.17C380.98 24.08 381.32 25.86 382 27.52C382.68 29.18 383.64 30.64 384.86 31.9C386.09 33.17 387.51 34.15 389.13 34.85C390.75 35.55 392.51 35.9 394.42 35.9C396.25 35.9 397.96 35.55 399.53 34.85C401.11 34.15 402.48 33.17 403.65 31.9C404.82 30.63 405.73 29.17 406.4 27.52C407.06 25.86 407.39 24.08 407.39 22.17C407.39 20.22 407.05 18.41 406.37 16.73C405.69 15.06 404.75 13.58 403.56 12.32C402.37 11.05 400.98 10.07 399.38 9.37C397.78 8.67 396.05 8.32 394.18 8.32C392.31 8.32 390.58 8.67 388.98 9.37C387.38 10.07 385.98 11.06 384.77 12.32C383.56 13.59 382.63 15.06 381.97 16.73C381.31 18.41 380.98 20.23 380.98 22.17Z" fill="#EBEBEB"/>
<path d="M222.26 88.09C222.48 88.37 222.43 88.78 222.14 88.98C221.03 89.74 219.74 90.36 218.27 90.85C216.56 91.42 214.84 91.71 213.11 91.71C210.15 91.71 207.54 91.13 205.29 89.97C203.03 88.81 201.29 87.18 200.06 85.09C198.83 83 198.22 80.5 198.22 77.58C198.22 74.67 198.89 72.16 200.22 70.07C201.55 67.98 203.3 66.36 205.48 65.22C207.65 64.08 209.95 63.51 212.35 63.51C214.63 63.51 216.64 63.82 218.37 64.43C219.89 64.97 221.22 65.68 222.35 66.56C222.61 66.76 222.65 67.15 222.45 67.41L219.74 71.07C219.54 71.34 219.17 71.39 218.9 71.21C218.28 70.79 217.54 70.39 216.69 70.01C215.61 69.52 214.38 69.28 212.98 69.28C211.59 69.28 210.31 69.65 209.15 70.39C207.99 71.13 207.06 72.11 206.36 73.34C205.66 74.56 205.31 75.98 205.31 77.58C205.31 79.1 205.67 80.49 206.39 81.76C207.11 83.03 208.09 84.03 209.34 84.77C210.59 85.51 212.03 85.88 213.68 85.88C214.78 85.88 215.77 85.72 216.66 85.4C217.36 85.15 218.01 84.83 218.61 84.43C218.88 84.25 219.23 84.29 219.43 84.54L222.26 88.09Z" fill="#EBEBEB"/>
<path d="M227.68 77.33C227.68 74.63 228.32 72.2 229.61 70.04C230.9 67.89 232.68 66.18 234.96 64.91C237.24 63.64 239.86 63.01 242.82 63.01C245.78 63.01 248.36 63.64 250.58 64.91C252.8 66.18 254.52 67.89 255.74 70.04C256.96 72.19 257.58 74.6 257.58 77.26C257.58 80.01 256.97 82.47 255.74 84.64C254.51 86.82 252.79 88.54 250.58 89.8C248.36 91.07 245.71 91.7 242.63 91.7C239.76 91.7 237.19 91.12 234.93 89.96C232.67 88.8 230.9 87.14 229.61 84.99C228.32 82.84 227.68 80.29 227.68 77.33ZM234.83 77.39C234.83 79 235.17 80.43 235.84 81.7C236.52 82.97 237.43 83.98 238.6 84.74C239.76 85.5 241.08 85.88 242.56 85.88C244.12 85.88 245.48 85.5 246.65 84.74C247.81 83.98 248.73 82.97 249.41 81.7C250.09 80.43 250.42 79 250.42 77.39C250.42 75.79 250.08 74.35 249.41 73.08C248.73 71.81 247.82 70.8 246.65 70.04C245.49 69.28 244.15 68.9 242.63 68.9C241.15 68.9 239.82 69.28 238.64 70.04C237.46 70.8 236.53 71.83 235.85 73.11C235.17 74.4 234.83 75.83 234.83 77.39Z" fill="#EBEBEB"/>
<path d="M270.97 64.21C271.28 64.21 271.55 64.45 271.58 64.76L272.15 69.98L271.96 69.22C272.85 67.36 274.21 65.87 276.05 64.75C277.89 63.63 280.07 63.07 282.61 63.07C285.1 63.07 287.18 63.82 288.85 65.32C290.52 66.82 291.37 68.73 291.42 71.05V90.39C291.42 90.73 291.15 91 290.81 91H284.94C284.6 91 284.33 90.73 284.33 90.39V73.64C284.29 72.29 283.91 71.2 283.19 70.38C282.47 69.56 281.33 69.12 279.77 69.08C278.33 69.08 277.03 69.51 275.87 70.38C274.71 71.25 273.82 72.43 273.21 73.93C272.6 75.43 272.29 77.17 272.29 79.16V90.39C272.29 90.73 272.02 91 271.68 91H265.81C265.47 91 265.2 90.73 265.2 90.39V64.82C265.2 64.48 265.47 64.21 265.81 64.21H270.97Z" fill="#EBEBEB"/>
<path d="M313.9 91.71C310.82 91.71 308.14 91.1 305.88 89.87C303.62 88.65 301.9 86.96 300.72 84.8C299.54 82.65 298.95 80.17 298.95 77.39C298.95 74.69 299.62 72.26 300.98 70.1C302.33 67.95 304.16 66.23 306.46 64.94C308.76 63.65 311.31 63.01 314.09 63.01C317.76 63.01 320.79 64.08 323.18 66.21C325.45 68.24 327 71.07 327.84 74.68C327.91 74.99 327.73 75.31 327.43 75.41L306.91 82.33C306.6 82.43 306.26 82.28 306.14 81.97L305 79.11C304.87 78.79 305.04 78.42 305.36 78.31L321.55 72.51L320.16 73.4C319.69 72.09 318.93 70.96 317.88 70.01C316.82 69.06 315.37 68.58 313.51 68.58C312.03 68.58 310.72 68.94 309.58 69.66C308.44 70.38 307.54 71.36 306.89 72.61C306.23 73.86 305.91 75.3 305.91 76.95C305.91 78.77 306.27 80.32 306.99 81.61C307.71 82.9 308.68 83.89 309.9 84.59C311.12 85.29 312.52 85.64 314.08 85.64C315.18 85.64 316.23 85.45 317.25 85.07C318.07 84.76 318.84 84.37 319.58 83.9C319.87 83.71 320.25 83.79 320.43 84.08L323 88.27C323.18 88.56 323.09 88.95 322.8 89.13C321.55 89.87 320.2 90.47 318.74 90.93C317.08 91.45 315.47 91.71 313.9 91.71Z" fill="#EBEBEB"/>
<path d="M356.77 88.09C356.99 88.37 356.94 88.78 356.65 88.98C355.54 89.74 354.25 90.36 352.78 90.85C351.07 91.42 349.35 91.71 347.62 91.71C344.66 91.71 342.05 91.13 339.79 89.97C337.53 88.81 335.79 87.18 334.56 85.09C333.33 83 332.72 80.5 332.72 77.58C332.72 74.67 333.39 72.16 334.72 70.07C336.05 67.98 337.8 66.36 339.98 65.22C342.15 64.08 344.45 63.51 346.85 63.51C349.13 63.51 351.14 63.82 352.87 64.43C354.39 64.97 355.72 65.68 356.85 66.56C357.11 66.76 357.15 67.15 356.96 67.41L354.25 71.07C354.05 71.34 353.68 71.39 353.41 71.21C352.78 70.79 352.05 70.39 351.2 70.01C350.12 69.52 348.89 69.28 347.49 69.28C346.1 69.28 344.82 69.65 343.66 70.39C342.5 71.13 341.57 72.11 340.87 73.34C340.17 74.56 339.83 75.98 339.83 77.58C339.83 79.1 340.19 80.49 340.91 81.76C341.63 83.03 342.61 84.03 343.86 84.77C345.11 85.51 346.55 85.88 348.2 85.88C349.3 85.88 350.29 85.72 351.18 85.4C351.88 85.15 352.53 84.83 353.13 84.43C353.4 84.25 353.75 84.29 353.95 84.54L356.77 88.09Z" fill="#EBEBEB"/>
<path d="M367.61 52.43H373.48C373.82 52.43 374.09 52.7 374.09 53.04V63.6C374.09 63.94 374.36 64.21 374.7 64.21H380.44C380.78 64.21 381.05 64.48 381.05 64.82V69.1C381.05 69.44 380.78 69.71 380.44 69.71H374.7C374.36 69.71 374.09 69.98 374.09 70.32V90.38C374.09 90.72 373.82 90.99 373.48 90.99H367.61C367.27 90.99 367 90.72 367 90.38V70.32C367 69.98 366.73 69.71 366.39 69.71H362.99C362.65 69.71 362.38 69.44 362.38 69.1V64.82C362.38 64.48 362.65 64.21 362.99 64.21H366.39C366.73 64.21 367 63.94 367 63.6V53.04C367 52.7 367.27 52.43 367.61 52.43Z" fill="#EBEBEB"/>
<path d="M399.31 91.71C396.78 91.71 394.48 91.18 392.44 90.13C390.39 89.08 388.77 87.5 387.59 85.41C386.41 83.32 385.82 80.73 385.82 77.65C385.82 74.61 386.44 72 387.69 69.83C388.94 67.66 390.58 65.97 392.63 64.79C394.68 63.61 396.91 63.02 399.31 63.02C401.89 63.02 403.96 63.53 405.52 64.54C407.08 65.55 408.33 66.76 409.26 68.15L408.88 69.16L409.5 64.75C409.54 64.45 409.8 64.22 410.11 64.22H415.55C415.89 64.22 416.16 64.49 416.16 64.83V90.4C416.16 90.74 415.89 91.01 415.55 91.01H409.62C409.28 91.01 409.01 90.74 409.01 90.4V84.49L409.71 86.2C409.54 86.45 409.21 86.87 408.73 87.44C408.24 88.01 407.55 88.63 406.64 89.31C405.73 89.99 404.68 90.56 403.47 91.02C402.25 91.48 400.87 91.71 399.31 91.71ZM401.27 85.88C402.54 85.88 403.7 85.66 404.75 85.21C405.81 84.77 406.69 84.11 407.41 83.25C408.11 82.41 408.63 81.42 408.97 80.28C408.99 80.22 409 80.15 409 80.08V74.46C409 74.39 408.99 74.31 408.97 74.24C408.63 73.19 408.08 72.26 407.32 71.46C406.54 70.64 405.61 69.99 404.53 69.53C403.45 69.07 402.28 68.83 401.01 68.83C399.53 68.83 398.18 69.19 396.95 69.91C395.73 70.63 394.75 71.62 394.04 72.89C393.32 74.16 392.96 75.61 392.96 77.26C392.96 78.87 393.34 80.32 394.1 81.63C394.86 82.94 395.86 83.97 397.11 84.73C398.37 85.5 399.75 85.88 401.27 85.88Z" fill="#EBEBEB"/>
</svg>
